<?xml version="1.0" encoding="utf-8"?><!-- Uploaded to: SVG Repo, www.svgrepo.com, Generator: SVG Repo Mixer Tools -->
<svg width="800px" height="800px" viewBox="0 0 24 24" fill="blue" xmlns="http://www.w3.org/2000/svg">
<path d="M18.5221 18.5208C17.9141 18.8274 17.2272 19 16.5 19L8.4 19C5.41766 19 3 16.6044 3 13.6493C3 11.2001 4.8 8.9375 7.5 8.5C7.59659 8.27034 7.70825 8.04754 7.83373 7.83303M10.9021 5.30015C11.4635 5.10615 12.0645 5 12.6893 5C15.684 5 18.1317 7.32251 18.3 10.25C19.8893 10.9449 21 12.6503 21 14.4969C21 14.7799 20.9739 15.0568 20.924 15.3253M3 3L21 21" stroke="#000000" strokeWidth="2" strokeLinecap="round" strokeLinejoin="round"/>
</svg>